<?xml version="1.0" standalone="no"?>
<!DOCTYPE svg PUBLIC "-//W3C//DTD SVG 20010904//EN"
 "http://www.w3.org/TR/2001/REC-SVG-20010904/DTD/svg10.dtd">
<svg version="1.0" xmlns="http://www.w3.org/2000/svg"
 width="512.000000pt" height="512.000000pt" viewBox="0 0 512.000000 512.000000"
 preserveAspectRatio="xMidYMid meet">
<metadata>
Created by potrace 1.14, written by Peter Selinger 2001-2017
</metadata>
<g transform="translate(0.000000,512.000000) scale(0.100000,-0.100000)"
fill="#000000" stroke="none">
<path d="M2270 5108 c-381 -57 -698 -290 -860 -630 -43 -91 -87 -232 -96 -312
-4 -28 -8 -58 -10 -66 -1 -8 -3 -107 -3 -220 l-1 -205 -36 65 c-84 151 -253
416 -311 487 -23 29 -68 46 -117 44 -68 -2 -95 -27 -200 -186 -332 -502 -542
-988 -611 -1420 -11 -64 -14 -393 -5 -470 5 -38 11 -97 15 -130 17 -156 84
-403 153 -565 100 -237 258 -427 422 -508 l85 -42 0 -322 -1 -323 -277 -1
c-152 -1 -289 -5 -304 -9 -63 -15 -113 -79 -113 -143 0 -50 38 -109 84 -131
l42 -21 2438 0 c2229 0 2441 1 2472 16 48 23 75 65 81 127 4 43 1 58 -19 86
-42 62 -74 74 -209 75 -72 0 -119 5 -120 11 -4 33 -4 1382 -1 1393 3 9 16 3
41 -20 64 -60 79 -70 118 -78 125 -29 227 106 163 217 -12 21 -72 82 -133 136
-114 99 -138 120 -264 233 l-72 65 -3 414 c-3 403 -4 414 -24 442 -64 86 -185
86 -246 1 -23 -32 -23 -38 -25 -293 -1 -143 -2 -268 -3 -279 0 -18 -35 10
-185 145 -22 20 -128 114 -235 209 -107 95 -228 203 -269 239 -40 36 -77 68
-82 71 -4 3 -9 201 -10 440 -1 323 -5 458 -15 524 -73 455 -424 823 -878 923
-80 17 -293 24 -376 11z m-794 -4242 l0 -563 -240 -1 -241 0 0 323 c0 178 2
325 5 327 3 2 40 21 83 43 130 64 260 201 352 368 20 37 38 67 39 67 1 0 2
-254 2 -564z"/>
<path d="M4335 5109 c-22 -5 -51 -10 -64 -13 -45 -10 -174 -76 -221 -113 -120
-97 -210 -237 -236 -368 -2 -11 -7 -33 -10 -49 -12 -57 -5 -191 15 -269 31
-120 83 -210 176 -303 64 -64 97 -88 165 -121 122 -58 167 -68 310 -68 109 1
134 4 198 27 314 113 493 419 436 745 -43 252 -235 458 -484 522 -78 20 -212
25 -285 10z"/>
</g>
</svg>
